# xmcd CD database file
#
# Track frame offsets:
#    150
#    30037
#    64080
#    93585
#    124902
#    169611
#    209232
#    267199
#
# Disc length: 4267 seconds
#
# Revision: 1
# Processed by: cddbd v1.5.2PL0 Copyright (c) Steve Scherf et al.
# Submitted via: CDex 1.51
#
DISCID=6c10a908
DTITLE=Sigur Rós - Ágætis byrjun
DYEAR=1999
DGENRE=Post-rock
TTITLE0=Intro
TTITLE1=Svefn-g-englar
TTITLE2=Starálfur
TTITLE3=Flugufrelsarinn
TTITLE4=Ný batterí
TTITLE5=Hjartað hamast (bamm bamm bamm)
TTITLE6=Viðrar vel til loftárása
TTITLE7=Ágætis byrjun
EXTD=YEAR: 1999
EXTT0=
EXTT1=
EXTT2=
EXTT3=
EXTT4=
EXTT5=
EXTT6=
EXTT7=
PLAYORDER=
